<svg id="Layer_1" data-name="Layer 1" xmlns="http://www.w3.org/2000/svg" viewBox="0 0 110.86 128"><defs><style>.cls-1{fill:#0d0333;}.cls-2,.cls-3,.cls-4,.cls-5,.cls-6,.cls-7,.cls-8{fill:#00e2ac;}.cls-2{opacity:0.65;}.cls-3{opacity:0.43;}.cls-4{opacity:0.46;}.cls-5{opacity:0.3;}.cls-6{opacity:0.44;}.cls-7{opacity:0.36;}.cls-8{opacity:0.58;}</style></defs><polygon class="cls-1" points="110.26 95.77 110.26 32.27 55.27 0.52 0.27 32.27 0.27 95.77 55.27 127.52 110.26 95.77"/><polygon class="cls-2" points="101.96 90.97 101.96 37.05 55.27 10.1 8.57 37.05 8.57 90.97 55.27 117.94 101.96 90.97"/><polygon class="cls-3" points="97.14 88.19 97.14 39.84 55.27 15.66 13.39 39.84 13.39 88.19 55.27 112.37 97.14 88.19"/><polygon class="cls-4" points="90.14 84.15 90.14 43.88 55.27 23.75 20.39 43.88 20.39 84.15 55.27 104.28 90.14 84.15"/><polygon class="cls-5" points="83.14 80.11 83.14 47.92 55.27 31.83 27.39 47.92 27.39 80.11 55.27 96.2 83.14 80.11"/><polygon class="cls-6" points="77.14 76.64 77.14 51.39 55.27 38.76 33.39 51.39 33.39 76.64 55.27 89.27 77.14 76.64"/><polygon class="cls-7" points="70.14 72.6 70.14 55.43 55.27 46.84 40.39 55.43 40.39 72.6 55.27 81.19 70.14 72.6"/><polygon class="cls-8" points="64.14 69.14 64.14 58.89 55.27 53.77 46.39 58.89 46.39 69.14 55.27 74.26 64.14 69.14"/></svg>