<svg id="Layer_1" data-name="Layer 1" xmlns="http://www.w3.org/2000/svg" viewBox="0 0 110.86 128"><defs><style>.cls-1{fill:#0d0333;}.cls-2{fill:#3a3058;}.cls-3{fill:#0d043f;}.cls-10,.cls-11,.cls-12,.cls-4,.cls-5,.cls-6,.cls-7,.cls-8,.cls-9{fill:#6d41f5;}.cls-4{opacity:0.13;}.cls-5{opacity:0.23;}.cls-6{opacity:0.3;}.cls-7{opacity:0.41;}.cls-8{opacity:0.5;}.cls-9{opacity:0.6;}.cls-10{opacity:0.7;}.cls-11{opacity:0.8;}.cls-12{opacity:0.85;}.cls-13{fill:#f45990;opacity:0.44;}</style></defs><path class="cls-1" d="M108.64,30.86,94.54,22.8,73.73,10.9,68.66,8,55.57.52,42.47,8,37.4,10.9,16.57,22.8,0,32.27v63.5l3.63,2.07,8.71,5,5.74,3.28L38.91,118l4.65,2.66,12,6.86,12-6.86L72.22,118l20.83-11.9,18.07-10.33V32.27ZM102.73,91,97.1,94.2,76.28,106.1,55.57,117.94,34.85,106.1,21.41,98.42,18.7,96.88,14,94.2,8.39,91V37.06l4.13-2.36L33.35,22.8,54.17,10.9l1.4-.8,1.4.8L77.79,22.8,98.6,34.7l4.13,2.36Z"/><polygon class="cls-2" points="102.73 37.06 102.73 90.98 97.1 94.2 76.28 106.1 55.57 117.94 34.85 106.1 21.41 98.42 18.7 96.88 14.02 94.2 8.39 90.98 8.39 37.06 12.52 34.7 33.35 22.8 54.17 10.9 55.57 10.1 56.97 10.9 77.79 22.8 98.6 34.7 102.73 37.06"/><polygon class="cls-3" points="102.73 37.06 102.73 90.98 97.1 94.2 76.28 106.1 55.57 117.94 34.85 106.1 21.41 98.42 18.7 96.88 14.02 94.2 8.39 90.98 8.39 37.06 12.52 34.7 33.35 22.8 54.17 10.9 55.57 10.1 56.97 10.9 77.79 22.8 98.6 34.7 102.73 37.06"/><polygon class="cls-4" points="77.79 22.8 33.35 22.8 54.17 10.9 56.97 10.9 77.79 22.8"/><polygon class="cls-5" points="98.6 34.7 12.52 34.7 33.35 22.8 77.79 22.8 98.6 34.7"/><polygon class="cls-6" points="102.73 37.06 102.73 46.6 8.39 46.6 8.39 37.06 12.52 34.7 98.6 34.7 102.73 37.06"/><rect class="cls-7" x="8.39" y="46.6" width="94.34" height="11.9"/><rect class="cls-8" x="8.39" y="58.5" width="94.34" height="11.9"/><rect class="cls-9" x="8.39" y="70.4" width="94.34" height="11.9"/><polygon class="cls-10" points="102.73 82.3 102.73 90.98 97.1 94.2 14.02 94.2 8.39 90.98 8.39 82.3 102.73 82.3"/><polygon class="cls-11" points="97.1 94.2 76.28 106.1 34.85 106.1 21.41 98.42 18.7 96.88 14.02 94.2 97.1 94.2"/><polygon class="cls-12" points="76.28 106.1 55.57 117.94 34.85 106.1 76.28 106.1"/><path class="cls-13" d="M82,54.48v-.13c0-8.09-5.85-15.5-14.65-15.5-7,0-11,5-12.43,9.73h0c-1.38-4.7-5.43-9.73-12.42-9.73-8.8,0-14.65,7.41-14.65,15.5v.13c-.05,1.76,0,19.67,27.06,34.27h0C82,74.15,82,56.24,82,54.48Z"/></svg>